<?xml version="1.0" encoding="UTF-8" standalone="no"?>
<!-- Created with Inkscape (http://www.inkscape.org/) -->

<svg
   xmlns:dc="http://purl.org/dc/elements/1.1/"
   xmlns:cc="http://creativecommons.org/ns#"
   xmlns:rdf="http://www.w3.org/1999/02/22-rdf-syntax-ns#"
   xmlns:svg="http://www.w3.org/2000/svg"
   xmlns="http://www.w3.org/2000/svg"
   xmlns:xlink="http://www.w3.org/1999/xlink"
   xmlns:sodipodi="http://sodipodi.sourceforge.net/DTD/sodipodi-0.dtd"
   xmlns:inkscape="http://www.inkscape.org/namespaces/inkscape"
   width="256"
   height="256"
   id="svg2985"
   version="1.1"
   inkscape:version="0.48.4 r9939"
   sodipodi:docname="logo.svg">
  <sodipodi:namedview
     id="base"
     pagecolor="#000000"
     bordercolor="#666666"
     borderopacity="1.0"
     inkscape:pageopacity="0"
     inkscape:pageshadow="2"
     inkscape:zoom="3.1640625"
     inkscape:cx="87.421435"
     inkscape:cy="108.82014"
     inkscape:current-layer="layer1"
     showgrid="true"
     inkscape:document-units="px"
     inkscape:grid-bbox="true"
     inkscape:window-width="1866"
     inkscape:window-height="1003"
     inkscape:window-x="25"
     inkscape:window-y="48"
     inkscape:window-maximized="0"
     inkscape:snap-bbox="true"
     inkscape:bbox-paths="true"
     inkscape:bbox-nodes="true"
     inkscape:snap-bbox-edge-midpoints="true"
     inkscape:snap-bbox-midpoints="true"
     inkscape:object-paths="true"
     inkscape:snap-intersection-paths="true"
     inkscape:object-nodes="true"
     inkscape:snap-smooth-nodes="true"
     inkscape:snap-midpoints="true"
     inkscape:snap-object-midpoints="true"
     inkscape:snap-center="true"
     inkscape:snap-page="true"
     inkscape:snap-nodes="false"
     fit-margin-top="0"
     fit-margin-left="0"
     fit-margin-right="0"
     fit-margin-bottom="0"
     inkscape:snap-global="false" />
  <defs
     id="defs2987">
    <linearGradient
       id="linearGradient3765">
      <stop
         style="stop-color:#7c9027;stop-opacity:1;"
         offset="0"
         id="stop3767" />
      <stop
         style="stop-color:#acc838;stop-opacity:1;"
         offset="1"
         id="stop3769" />
    </linearGradient>
    <linearGradient
       inkscape:collect="always"
       xlink:href="#linearGradient3765"
       id="linearGradient3779"
       x1="132.26398"
       y1="-176.30917"
       x2="136.00533"
       y2="-23.973377"
       gradientUnits="userSpaceOnUse"
       gradientTransform="translate(-0.05707888,16.038363)" />
  </defs>
  <metadata
     id="metadata2990">
    <rdf:RDF>
      <cc:Work
         rdf:about="">
        <dc:format>image/svg+xml</dc:format>
        <dc:type
           rdf:resource="http://purl.org/dc/dcmitype/StillImage" />
        <dc:title />
      </cc:Work>
    </rdf:RDF>
  </metadata>
  <g
     transform="translate(-7.9587538,239.29734)"
     inkscape:groupmode="layer"
     inkscape:label="Layer 1"
     id="layer1">
    <path
       sodipodi:type="arc"
       style="fill:#8c542c;fill-opacity:1;stroke:#000000;stroke-width:6;stroke-linecap:round;stroke-linejoin:round;stroke-miterlimit:4;stroke-dasharray:none"
       id="path3781"
       sodipodi:cx="124.99753"
       sodipodi:cy="230.87407"
       sodipodi:rx="50.409878"
       sodipodi:ry="23.22963"
       d="m 175.40741,230.87407 a 50.409878,23.22963 0 1 1 -100.81976,0 50.409878,23.22963 0 1 1 100.81976,0 z"
       transform="matrix(1.3831173,0,0,0.86540429,-36.927492,-206.95848)" />
    <path
       style="font-size:medium;font-style:normal;font-variant:normal;font-weight:normal;font-stretch:normal;text-indent:0;text-align:start;text-decoration:none;line-height:normal;letter-spacing:normal;word-spacing:normal;text-transform:none;direction:ltr;block-progression:tb;writing-mode:lr-tb;text-anchor:start;baseline-shift:baseline;color:#000000;fill:url(#linearGradient3779);fill-opacity:1;stroke:#000000;stroke-width:6;stroke-miterlimit:4;stroke-dasharray:none;marker:none;visibility:visible;display:inline;overflow:visible;enable-background:accumulate;font-family:Sans;-inkscape-font-specification:Sans"
       d="m 127.80094,-158.29235 c -17.38271,97.027168 -0.72476,150.3047872 -0.72476,150.3047872 l 17.64985,0 C 129.23961,-55.078921 125.27069,-114.24184 143.04621,-158.29235 z"
       id="path4884"
       inkscape:connector-curvature="0"
       sodipodi:nodetypes="ccccc" />
    <path
       style="font-size:340px;font-style:italic;font-variant:normal;font-weight:300;font-stretch:normal;text-indent:0;text-align:start;text-decoration:none;line-height:125%;letter-spacing:0px;word-spacing:0px;text-transform:none;direction:ltr;block-progression:tb;writing-mode:lr-tb;text-anchor:start;color:#000000;fill:#7ec837;fill-opacity:1;fill-rule:nonzero;stroke:none;stroke-width:1px;marker:none;visibility:visible;font-family:Linux Libertine;-inkscape-font-specification:Linux Libertine Italic"
       d="m 72.853038,-211.3461 c -22.146397,-0.40183 -39.660449,27.13137 -42.87973,47.74986 -3.736469,17.98112 -11.737616,36.24883 10.436637,46.13646 16.16576,9.61009 41.023933,0.9361 53.626726,-7.75186 12.681279,-7.84744 30.148849,-21.93266 39.337019,-33.74233 1.09073,-22.83342 -10.82104,-33.40196 -27.21129,-46.21696 -5.0408,-3.44132 -27.139248,-6.47587 -33.309362,-6.17517 z m 134.769782,2.24813 c -20.51074,2.18357 -37.72308,18.88925 -52.84405,31.63584 -3.59205,3.3876 -11.8557,10.13562 -15.00242,13.97297 0.91437,25.52858 23.795,41.8409 44.05203,53.12973 17.17457,7.14607 39.73699,-6.93798 48.02079,-22.53971 20.1401,-29.82145 18.72367,-54.26309 3.97334,-72.57469 -5.61994,-5.69406 -20.261,-3.99436 -28.19969,-3.62414 z"
       id="path5654"
       inkscape:connector-curvature="0"
       sodipodi:nodetypes="cccccccccccccc" />
    <path
       style="font-size:medium;font-style:normal;font-variant:normal;font-weight:normal;font-stretch:normal;text-indent:0;text-align:start;text-decoration:none;line-height:normal;letter-spacing:normal;word-spacing:normal;text-transform:none;direction:ltr;block-progression:tb;writing-mode:lr-tb;text-anchor:start;baseline-shift:baseline;color:#000000;fill:#5b8123;fill-opacity:1;stroke:none;stroke-width:4;marker:none;visibility:visible;display:inline;overflow:visible;enable-background:accumulate;font-family:Sans;-inkscape-font-specification:Sans"
       d="m 101.86929,-181.4659 c -15.717322,-0.48899 -39.081561,9.97532 -58.74429,30.75661 l 1.009954,1.03884 c 14.719687,-12.96432 38.195102,-25.71374 52.552546,-25.26705 14.35744,0.44669 27.30907,9.04501 35.64865,18.61267 L 134.25,-159.875 c -8.875,-10.18191 -16.66339,-21.10191 -32.38071,-21.5909 z"
       id="path5656"
       inkscape:connector-curvature="0"
       sodipodi:nodetypes="sccsccs" />
    <path
       style="font-size:medium;font-style:normal;font-variant:normal;font-weight:normal;font-stretch:normal;text-indent:0;text-align:start;text-decoration:none;line-height:normal;letter-spacing:normal;word-spacing:normal;text-transform:none;direction:ltr;block-progression:tb;writing-mode:lr-tb;text-anchor:start;baseline-shift:baseline;color:#000000;fill:#5b8123;fill-opacity:1;stroke:none;stroke-width:4;marker:none;visibility:visible;display:inline;overflow:visible;enable-background:accumulate;font-family:Sans;-inkscape-font-specification:Sans"
       d="m 174.67261,-173.76065 c -12.41538,-0.42956 -21.54031,2.87846 -34.79761,10.66335 l 2.88683,2.99054 c 8.90847,-5.13017 17.89577,-6.15772 28.4002,-7.07719 15.22515,-1.33269 47.35999,11.57601 57.65047,18.3615 l 0.60725,-1.57837 c -20.41508,-13.58129 -37.98859,-23.26644 -54.74714,-23.35983 z"
       id="path5714"
       inkscape:connector-curvature="0"
       sodipodi:nodetypes="cccsccc" />
    <path
       sodipodi:nodetypes="sssscsssssscsssscssssssscss"
       inkscape:connector-curvature="0"
       id="path5716"
       d="m 83.505421,-217.18039 c -25.080075,0.68936 -45.745929,19.36051 -57,40.46875 -8.826882,16.55578 -14.873318,37.49197 -6.53125,55.3125 8.783463,18.76345 34.44164,21.541113 52.038812,13.37511 21.029985,-9.759 45.540047,-30.1146 61.031147,-46.80588 2.2236,5.56685 3.42965,8.65137 5.16958,11.95163 10.13806,19.22964 25.51088,38.6589 48.69796,39.10414 26.70937,0.51288 48.70189,-19.86502 60.0625,-42.46875 8.11445,-16.14498 12.52432,-36.21993 5.28125,-53.3125 -4.78986,-11.30337 -17.2057,-17.65563 -29.375,-17.5625 -25.16317,0.19257 -46.21008,16.7719 -64.26954,32.42449 -5.72472,4.96176 -13.01234,12.05506 -18.36679,17.40786 -10.3545,-26.92106 -24.15226,-45.82452 -48.863669,-49.51985 -2.599875,-0.38878 -5.24284,-0.44735 -7.875,-0.375 z m -6.59375,6.25 c 17.399663,-0.31694 31.428779,7.21697 39.854539,20.45285 5.65809,8.88819 9.6253,15.25647 15.54595,32.95157 -24.73577,21.03301 -33.124004,30.10303 -59.274777,40.82864 -13.480959,5.52915 -36.927008,3.76634 -42.692805,-10.20381 -9.394631,-22.76257 2.537674,-57.58752 20.785843,-74.1855 6.956741,-6.32764 16.36602,-9.67225 25.78125,-9.84375 z m 165.207279,17.60436 c 7.23908,24.05142 -4.31306,64.15451 -26.95728,77.23939 -12.20467,7.05242 -34.56429,6.67496 -44.873,-3.79358 -13.14597,-13.3498 -21.5807,-22.73312 -28.61274,-43.72068 14.53834,-16.68797 35.34768,-34.88022 56.54824,-42.11074 18.90866,-6.44886 38.98266,-3.9346 43.89478,12.38561 z"
       style="font-size:340px;font-style:italic;font-variant:normal;font-weight:300;font-stretch:normal;text-indent:0;text-align:start;text-decoration:none;line-height:125%;letter-spacing:0px;word-spacing:0px;text-transform:none;direction:ltr;block-progression:tb;writing-mode:lr-tb;text-anchor:start;color:#000000;fill:#000000;fill-opacity:1;fill-rule:nonzero;stroke:none;stroke-width:1px;marker:none;visibility:visible;font-family:Linux Libertine;-inkscape-font-specification:Linux Libertine Italic" />
  </g>
</svg>
